<?xml version="1.0" standalone="no"?><!DOCTYPE svg PUBLIC "-//W3C//DTD SVG 1.1//EN" "http://www.w3.org/Graphics/SVG/1.1/DTD/svg11.dtd"><svg t="1742811998943" class="icon" viewBox="0 0 1024 1024" version="1.1" xmlns="http://www.w3.org/2000/svg" p-id="7833" xmlns:xlink="http://www.w3.org/1999/xlink" width="200" height="200"><path d="M493.518049 906.264976c-2.497561 0-4.995122 0-9.990244-2.497561L91.410732 693.972293c-7.492683-4.995122-9.990244-12.487805-9.990244-19.980488L158.844878 271.884488c0-7.492683 4.995122-12.487805 12.487805-14.985366l397.112195-157.346342c7.492683-2.497561 17.482927 0 22.478049 7.492683l332.17561 556.956098c2.497561 4.995122 2.497561 9.990244 2.497561 14.985366-2.497561 4.995122-4.995122 9.990244-9.990244 12.487805l-412.097561 209.795122c-2.497561 4.995122-4.995122 4.995122-9.990244 4.995122zM121.381463 666.499122l374.634147 197.307317 387.121951-194.809756L565.947317 142.011317 193.810732 289.367415 121.381463 666.499122z" fill="#5E4EFF" p-id="7834"></path><path d="M493.518049 906.264976c-7.492683 0-12.487805-4.995122-17.482927-9.990244L273.732683 501.660098 113.88878 688.977171c-7.492683 7.492683-17.482927 9.990244-27.47317 2.497561-7.492683-7.492683-9.990244-17.482927-2.497561-27.473171l169.834146-197.307317-92.409756-177.326829c-2.497561-7.492683-2.497561-14.985366 4.995122-22.478049 4.995122-4.995122 14.985366-7.492683 22.478049-2.497561l162.341463 89.912195L563.449756 107.045463c4.995122-4.995122 14.985366-7.492683 22.478049-4.995122 7.492683 2.497561 12.487805 9.990244 12.487805 19.980488l-37.463415 352.156098 334.673171 187.317073c9.990244 4.995122 12.487805 17.482927 7.492683 24.97561-4.995122 9.990244-17.482927 12.487805-24.97561 7.492683l-319.687805-179.824391-39.960975 374.634147c0 7.492683-7.492683 14.985366-14.985366 17.482927h-9.990244z m-194.809756-434.57561l182.321951 352.156097 34.965854-329.678048-159.843903-89.912195-57.443902 67.434146z m82.419512-97.404878l139.863415 77.42439 29.970731-274.731707-169.834146 197.307317z m-157.346342-44.956098l57.443903 107.395122 44.956097-52.44878-102.4-54.946342z" fill="#5E4EFF" p-id="7835"></path><path d="M575.937561 122.030829m-62.439024 0a62.439024 62.439024 0 1 0 124.878048 0 62.439024 62.439024 0 1 0-124.878048 0Z" fill="#5E4EFF" p-id="7836"></path><path d="M178.825366 276.87961m-62.439025 0a62.439024 62.439024 0 1 0 124.878049 0 62.439024 62.439024 0 1 0-124.878049 0Z" fill="#5E4EFF" p-id="7837"></path><path d="M101.400976 681.484488m-62.439025 0a62.439024 62.439024 0 1 0 124.878049 0 62.439024 62.439024 0 1 0-124.878049 0Z" fill="#5E4EFF" p-id="7838"></path><path d="M496.01561 896.274732m-62.439025 0a62.439024 62.439024 0 1 0 124.878049 0 62.439024 62.439024 0 1 0-124.878049 0Z" fill="#5E4EFF" p-id="7839"></path><path d="M903.118049 681.484488m-62.439025 0a62.439024 62.439024 0 1 0 124.878049 0 62.439024 62.439024 0 1 0-124.878049 0Z" fill="#5E4EFF" p-id="7840"></path></svg>